#!OML:ASF Y:\EmotionMaleHayes\Project 1\Capture day 1\Session 1\Male1.ASF
:FULLY-SPECIFIED
:DEGREES
621
root 33.6748 17.3699 -0.825708 -167.079 -32.7463 -190.937
lowerback 24.5175 4.3621 -3.97455
upperback 9.69081 3.03553 -2.54517
thorax -3.01592 0.814508 -1.25923
lowerneck -14.2361 -15.85 -12.1375
upperneck 23.3089 -22.6267 8.77878
head 12.4539 -10.3308 1.36816
rclavicle -5.56597e-014 5.40694e-014
rhumerus -78.9136 23.2149 -83.8231
rradius 73.1047
rwrist -11.5298
rhand -43.0456 -23.0078
rfingers 7.12502
rthumb -15.9022 -52.3748
lclavicle -5.56597e-014 5.40694e-014
lhumerus -46.1659 3.00818 12.3789
lradius 32.9548
lwrist 17.3714
lhand -25.3179 -17.1358
lfingers 7.12502
lthumb 1.20454 12.8405
rfemur -35.3145 -30.1179 -16.0999
rtibia 78.9643
rfoot 3.31731 -3.52687
rtoes 27.341
lfemur -1.1112 12.1978 -0.0449094
ltibia 15.6466
lfoot 8.46729 13.5793
ltoes 6.17905
622
root 33.8272 17.4715 -0.944349 -167.014 -32.3993 -191.875
lowerback 24.6863 4.28924 -3.757
upperback 9.88808 2.96993 -2.27806
thorax -2.88531 0.766385 -1.07825
lowerneck -14.0084 -16.0172 -12.2767
upperneck 23.0206 -22.8065 8.69818
head 12.3226 -10.4449 1.3465
rclavicle -4.85035e-014 3.33958e-014
rhumerus -81.3224 23.647 -84.1362
rradius 74.8602
rwrist -10.6108
rhand -43.6054 -23.5967
rfingers 7.12502
rthumb -16.4413 -52.92
lclavicle -4.85035e-014 3.33958e-014
lhumerus -45.7805 3.90573 10.5932
lradius 33.4634
lwrist 19.3808
lhand -26.0702 -16.0973
lfingers 7.12502
lthumb 0.477974 13.882
rfemur -35.1031 -29.9129 -16.3461
rtibia 76.7381
rfoot 4.05314 -2.40234
rtoes 26.2938
lfemur -0.438776 11.9207 0.353279
ltibia 15.0868
lfoot 11.3662 14.2516
ltoes 13.2886
623
root 33.9884 17.5534 -1.06237 -166.673 -32.2565 -192.913
lowerback 24.682 4.11772 -3.47363
upperback 10.0114 2.81367 -2.14231
thorax -2.74051 0.687297 -1.04699
lowerneck -13.5549 -16.0742 -12.9134
upperneck 22.4393 -22.9005 9.36568
head 12.2023 -10.4964 1.68157
rclavicle 3.4191e-014 -6.36111e-015
rhumerus -83.3027 23.5783 -84.2197
rradius 76.3775
rwrist -10.4593
rhand -43.8125 -23.3657
rfingers 7.12502
rthumb -16.6406 -52.6724
lclavicle 3.4191e-014 -6.36111e-015
lhumerus -45.2354 4.57527 8.70131
lradius 34.2197
lwrist 21.1031
lhand -26.6105 -15.4901
lfingers 7.12502
lthumb -0.0438714 14.4896
rfemur -34.9882 -29.7111 -16.6874
rtibia 74.5254
rfoot 4.59969 -1.49784
rtoes 26.8753
lfemur -0.451493 12.119 0.788656
ltibia 15.4107
lfoot 13.8203 14.0011
ltoes 16.1331
624
root 34.1579 17.6185 -1.1776 -166.129 -32.4215 -193.955
lowerback 24.6129 3.90367 -3.39089
upperback 10.0223 2.60291 -1.78239
thorax -2.7084 0.586855 -0.646427
lowerneck -13.5675 -16.1521 -13.0811
upperneck 22.35 -22.8788 9.04692
head 12.1411 -10.5331 1.59997
rclavicle -6.75868e-014 1.59028e-015
rhumerus -84.7326 23.4699 -83.5087
rradius 77.763
rwrist -11.8275
rhand -43.0744 -21.1215
rfingers 7.12502
rthumb -15.93 -50.4863
lclavicle -6.75868e-014 1.59028e-015
lhumerus -44.8072 4.99987 7.15245
lradius 35.0328
lwrist 22.4658
lhand -26.8764 -15.7185
lfingers 7.12502
lthumb -0.300688 14.261
rfemur -34.8787 -29.6593 -16.9937
rtibia 72.318
rfoot 4.70252 -0.826323
rtoes 27.3176
lfemur -1.27022 12.9093 1.39233
ltibia 16.8114
lfoot 15.9089 12.6988
ltoes 15.9464
625
root 34.3324 17.6717 -1.29061 -165.745 -32.5373 -194.674
lowerback 24.5959 3.79072 -3.37073
upperback 9.96606 2.52888 -1.18596
thorax -2.78891 0.55372 0.00484606
lowerneck -13.3813 -16.2648 -13.4194
upperneck 22.1306 -22.8768 8.72448
head 12.0162 -10.6041 1.55347
rclavicle -5.32743e-014 4.29375e-014
rhumerus -85.9998 23.4305 -82.676
rradius 78.9238
rwrist -12.0452
rhand -42.8439 -19.3325
rfingers 7.12502
rthumb -15.708 -48.7149
lclavicle -5.32743e-014 4.29375e-014
lhumerus -44.3919 5.22849 5.91774
lradius 35.8341
lwrist 23.4976
lhand -27.4857 -16.004
lfingers 7.12502
lthumb -0.889165 13.9738
rfemur -34.8458 -29.3846 -16.9455
rtibia 70.0938
rfoot 4.26696 -0.36663
rtoes 27.2017
lfemur -2.24087 13.4959 2.22562
ltibia 18.6423
lfoot 16.7709 11.547
ltoes 14.1683
626
root 34.5067 17.714 -1.40135 -165.562 -32.5079 -195.161
lowerback 24.5138 3.46953 -2.49736
upperback 10.0551 2.311 -1.19632
thorax -2.61027 0.465081 -0.439692
lowerneck -13.1913 -16.2523 -13.4526
upperneck 21.702 -22.9009 9.06991
head 11.8729 -10.599 1.69607
rclavicle -2.22639e-014 -2.8625e-014
rhumerus -86.5514 22.8667 -82.5072
rradius 79.6327
rwrist -11.3406
rhand -43.2309 -18.007
rfingers 7.12502
rthumb -16.0807 -47.3597
lclavicle -2.22639e-014 -2.8625e-014
lhumerus -43.4684 5.43388 3.98052
lradius 36.595
lwrist 24.4437
lhand -28.5226 -16.1435
lfingers 7.12502
lthumb -1.89065 13.8279
rfemur -34.8641 -28.8549 -16.6494
rtibia 67.9236
rfoot 3.07871 -0.614167
rtoes 27.07
lfemur -2.96896 13.5613 3.15213
ltibia 20.2882
lfoot 16.4262 11.0945
ltoes 11.8178
627
root 34.6777 17.7425 -1.51156 -165.409 -32.4282 -195.692
lowerback 24.4023 3.22114 -1.71337
upperback 10.1933 2.1575 -1.19408
thorax -2.37138 0.403437 -0.837159
lowerneck -13.3976 -16.2054 -13.12
upperneck 21.5242 -22.8044 8.93693
head 11.7693 -10.5411 1.62085
rclavicle -1.27222e-014 -4.77083e-014
rhumerus -86.6527 22.133 -82.0141
rradius 80.2474
rwrist -10.7428
rhand -43.479 -17.2133
rfingers 7.12502
rthumb -16.3196 -46.5466
lclavicle -1.27222e-014 -4.77083e-014
lhumerus -42.3898 5.6138 2.24996
lradius 37.3899
lwrist 25.2588
lhand -29.6671 -16.3894
lfingers 7.12502
lthumb -2.99593 13.5693
rfemur -34.9018 -28.4437 -16.3292
rtibia 65.9272
rfoot 1.28469 -1.79595
rtoes 25.4552
lfemur -3.63443 13.7108 4.06745
ltibia 21.9505
lfoot 15.5878 10.8678
ltoes 9.56441
628
root 34.8457 17.754 -1.62273 -165.235 -32.2513 -196.176
lowerback 24.1699 3.17187 -1.12188
upperback 10.314 2.23617 -1.06561
thorax -2.10564 0.455197 -1.04669
lowerneck -12.4398 -16.4499 -13.5981
upperneck 20.626 -23.2566 9.728
head 11.4815 -10.7567 1.94907
rclavicle 5.24792e-014 -7.15625e-014
rhumerus -86.5648 21.0817 -81.1111
rradius 80.9945
rwrist -10.3448
rhand -43.4873 -17.1238
rfingers 7.12502
rthumb -16.3276 -46.4564
lclavicle 5.24792e-014 -7.15625e-014
lhumerus -40.9799 5.77801 0.862735
lradius 38.1351
lwrist 26.008
lhand -30.7309 -16.7973
lfingers 7.12502
lthumb -4.02329 13.1445
rfemur -35.1276 -28.2426 -15.8938
rtibia 64.1799
rfoot -0.419017 -4.191
rtoes 25.6934
lfemur -4.28244 14.1881 5.11998
ltibia 23.5978
lfoot 14.7231 10.9162
ltoes 7.5394
629
root 35.0304 17.7447 -1.72748 -164.879 -32.3411 -196.787
lowerback 24.0441 3.11866 -0.959544
upperback 10.2716 2.24994 -0.700391
thorax -2.09995 0.469301 -0.746872
lowerneck -11.7527 -16.55 -13.5
upperneck 19.8601 -23.331 9.5531
head 11.0391 -10.854 1.94441
rclavicle -1.90833e-014 -6.36111e-015
rhumerus -86.3744 20.2106 -79.9427
rradius 81.7832
rwrist -10.0067
rhand -43.6053 -17.3252
rfingers 7.12502
rthumb -16.4412 -46.6484
lclavicle -1.90833e-014 -6.36111e-015
lhumerus -39.6783 5.95439 -0.275816
lradius 38.7582
lwrist 26.5575
lhand -31.9209 -17.59
lfingers 7.12502
lthumb -5.17239 12.3268
rfemur -35.3943 -28.4918 -15.4249
rtibia 62.6715
rfoot -1.96905 -8.23275
rtoes 30.208
lfemur -5.27326 14.8044 6.18894
ltibia 25.2219
lfoot 14.2698 10.9514
ltoes 5.84386
